<?xml version="1.0" encoding="utf-8"?>
<!-- Generator: Adobe Illustrator 19.2.1, SVG Export Plug-In . SVG Version: 6.00 Build 0)  -->
<svg version="1.1" id="Layer_1" xmlns="http://www.w3.org/2000/svg" xmlns:xlink="http://www.w3.org/1999/xlink" x="0px" y="0px"
	 viewBox="0 0 24 24" style="enable-background:new 0 0 24 24;" xml:space="preserve">
<g>
	<g>
		<path d="M21.9,12.1c-0.2-0.2-0.5-0.2-0.7,0s-0.2,0.5,0,0.7l1,1c0.1,0.1,0.2,0.1,0.4,0.1s0.3,0,0.4-0.1c0.2-0.2,0.2-0.5,0-0.7
			L21.9,12.1z M1.5,10.5C1.5,10.2,1.3,10,1,10H0.5C0.2,10,0,10.2,0,10.5S0.2,11,0.5,11H1C1.3,11,1.5,10.8,1.5,10.5z M21.5,9
			c0.1,0,0.3,0,0.4-0.1l1-1c0.2-0.2,0.2-0.5,0-0.7s-0.5-0.2-0.7,0l-1,1c-0.2,0.2-0.2,0.5,0,0.7C21.2,9,21.4,9,21.5,9z M22,10.5
			C22,9.7,21.3,9,20.5,9H20V1.5C20,0.7,19.3,0,18.5,0h-13C4.7,0,4,0.7,4,1.5V9H3.5C2.7,9,2,9.7,2,10.5S2.7,12,3.5,12H4v11.5
			C4,23.8,4.2,24,4.5,24h3C7.8,24,8,23.8,8,23.5v-18C8,5.2,8.2,5,8.5,5h7C15.8,5,16,5.2,16,5.5v18c0,0.3,0.2,0.5,0.5,0.5h3
			c0.3,0,0.5-0.2,0.5-0.5V12h0.5C21.3,12,22,11.3,22,10.5z M4,11H3.5C3.2,11,3,10.8,3,10.5S3.2,10,3.5,10H4V11z M19,23h-2V5.5
			C17,4.7,16.3,4,15.5,4h-7C7.7,4,7,4.7,7,5.5V23H5V1.5C5,1.2,5.2,1,5.5,1h13C18.8,1,19,1.2,19,1.5V23z M20.5,11H20v-1h0.5
			c0.3,0,0.5,0.2,0.5,0.5S20.8,11,20.5,11z M2.1,8.9C2.2,9,2.4,9,2.5,9s0.3,0,0.4-0.1C3,8.7,3,8.3,2.9,8.1l-1-1C1.7,7,1.3,7,1.1,7.1
			S1,7.7,1.1,7.9L2.1,8.9z M2.1,12.1l-1,1c-0.2,0.2-0.2,0.5,0,0.7C1.2,14,1.4,14,1.5,14s0.3,0,0.4-0.1l1-1c0.2-0.2,0.2-0.5,0-0.7
			S2.3,12,2.1,12.1z M23.5,10H23c-0.3,0-0.5,0.2-0.5,0.5S22.7,11,23,11h0.5c0.3,0,0.5-0.2,0.5-0.5S23.8,10,23.5,10z M16.5,2
			C16.2,2,16,2.2,16,2.5S16.2,3,16.5,3S17,2.8,17,2.5S16.8,2,16.5,2z M13.5,2C13.2,2,13,2.2,13,2.5S13.2,3,13.5,3S14,2.8,14,2.5
			S13.8,2,13.5,2z M10.5,2C10.2,2,10,2.2,10,2.5S10.2,3,10.5,3S11,2.8,11,2.5S10.8,2,10.5,2z M7.5,2C7.2,2,7,2.2,7,2.5S7.2,3,7.5,3
			S8,2.8,8,2.5S7.8,2,7.5,2z"/>
	</g>
</g>
</svg>
