<svg xmlns="http://www.w3.org/2000/svg" viewBox="0 0 18.26 31.96"><title>security-gate-light</title><path d="M8.23,17.75a2.28,2.28,0,0,0-2.28-2.28H3.66a2.28,2.28,0,0,0,0,4.57H5.94A2.28,2.28,0,0,0,8.23,17.75Z" transform="translate(-1.38 -1.77)" fill="#010101"/><path d="M19.64,10.9H17.36a6.85,6.85,0,0,0,0,13.7h2.28" transform="translate(-1.38 -1.77)" fill="#010101"/><path d="M19.64,20H17.36a2.28,2.28,0,0,1,0-4.57h2.28V20Z" transform="translate(-1.38 -1.77)" fill="#fff"/><path d="M11.18,10.24A2.28,2.28,0,0,0,14.41,7L9.84,2.44A2.28,2.28,0,0,0,6.61,5.67Z" transform="translate(-1.38 -1.77)" fill="#010101"/><path d="M11.18,25.27L6.61,29.84a2.28,2.28,0,0,0,3.23,3.23l4.57-4.57A2.28,2.28,0,1,0,11.18,25.27Z" transform="translate(-1.38 -1.77)" fill="#010101"/></svg>